<svg width="84" height="80" viewBox="0 0 84 80" fill="none" xmlns="http://www.w3.org/2000/svg" xmlns:xlink="http://www.w3.org/1999/xlink">
<path d="M82.353,40C82.353,62.091 63.918,80 41.176,80C18.435,80 0,62.091 0,40C0,17.909 18.435,0 41.176,0C63.918,0 82.353,17.909 82.353,40Z" stroke="#C2BBBB" stroke-width="1" stroke-miterlimit="3.999327"/>
<path d="M27.671,33.253C29.069,30.329 31.214,27.872 33.866,26.154C36.519,24.437 39.573,23.529 42.689,23.53C47.219,23.53 51.024,25.278 53.933,28.127L49.114,33.188C47.371,31.439 45.156,30.548 42.689,30.548C38.311,30.548 34.605,33.654 33.286,37.824C32.95,38.882 32.758,40.012 32.758,41.177C32.758,42.341 32.95,43.471 33.286,44.53C34.607,48.701 38.311,51.805 42.689,51.805C44.95,51.805 46.874,51.179 48.38,50.12C49.253,49.517 50,48.734 50.577,47.818C51.153,46.903 51.547,45.874 51.734,44.794L42.689,44.794L42.689,37.968L58.518,37.968C58.716,39.122 58.824,40.326 58.824,41.577C58.824,46.953 56.992,51.477 53.812,54.548C51.032,57.244 47.227,58.824 42.689,58.824C40.482,58.825 38.296,58.369 36.256,57.482C34.217,56.596 32.364,55.296 30.803,53.657C29.242,52.018 28.004,50.072 27.16,47.931C26.316,45.79 25.882,43.494 25.882,41.177C25.882,38.328 26.531,35.635 27.671,33.253Z" fill="#000000"/>
</svg>
