<svg width="40" height="46" viewBox="0 0 40 46" fill="none" xmlns="http://www.w3.org/2000/svg" xmlns:xlink="http://www.w3.org/1999/xlink">
<path d="M4.714,1.44C5.151,0.947 5.676,0.564 6.254,0.318C6.833,0.071 7.451,-0.034 8.068,0.01C8.685,0.053 9.286,0.244 9.833,0.57C10.38,0.896 10.859,1.349 11.238,1.9L15.726,8.41C16.548,9.604 16.838,11.159 16.513,12.627L15.146,18.809C15.076,19.13 15.08,19.465 15.158,19.783C15.235,20.101 15.385,20.391 15.591,20.624L21.733,27.56C21.94,27.793 22.198,27.962 22.48,28.05C22.762,28.138 23.059,28.142 23.343,28.063L28.815,26.519C29.457,26.338 30.126,26.325 30.773,26.479C31.42,26.633 32.028,26.951 32.55,27.408L38.315,32.472C40.387,34.293 40.577,37.751 38.722,39.843L36.138,42.761C34.288,44.85 31.523,45.768 28.945,44.743C22.347,42.125 16.357,37.86 11.421,32.266C6.467,26.693 2.69,19.93 0.371,12.48C-0.534,9.573 0.279,6.448 2.129,4.359L4.714,1.44Z" clip-rule="evenodd" fill-rule="evenodd" fill="#000000"/>
</svg>
