<svg width="84" height="80" viewBox="0 0 84 80" fill="none" xmlns="http://www.w3.org/2000/svg" xmlns:xlink="http://www.w3.org/1999/xlink">
<path d="M82.353,40C82.353,62.091 63.918,80 41.176,80C18.435,80 0,62.091 0,40C0,17.909 18.435,0 41.176,0C63.918,0 82.353,17.909 82.353,40Z" stroke="#C2BBBB" stroke-width="1" stroke-miterlimit="3.999327"/>
<path d="M33.765,23.53L48.588,23.53C54.235,23.53 58.824,28.118 58.824,33.765L58.824,48.588C58.824,51.303 57.745,53.906 55.826,55.826C53.906,57.745 51.303,58.824 48.588,58.824L33.765,58.824C28.118,58.824 23.53,54.235 23.53,48.588L23.53,33.765C23.53,31.05 24.608,28.447 26.527,26.527C28.447,24.608 31.05,23.53 33.765,23.53ZM33.412,27.059C31.727,27.059 30.111,27.728 28.92,28.92C27.728,30.111 27.059,31.727 27.059,33.412L27.059,48.941C27.059,52.453 29.9,55.294 33.412,55.294L48.941,55.294C50.626,55.294 52.242,54.625 53.434,53.434C54.625,52.242 55.294,50.626 55.294,48.941L55.294,33.412C55.294,29.9 52.453,27.059 48.941,27.059L33.412,27.059ZM50.441,29.706C51.026,29.706 51.587,29.938 52.001,30.352C52.415,30.766 52.647,31.327 52.647,31.912C52.647,32.497 52.415,33.058 52.001,33.472C51.587,33.885 51.026,34.118 50.441,34.118C49.856,34.118 49.295,33.885 48.882,33.472C48.468,33.058 48.235,32.497 48.235,31.912C48.235,31.327 48.468,30.766 48.882,30.352C49.295,29.938 49.856,29.706 50.441,29.706ZM41.177,32.353C43.517,32.353 45.761,33.283 47.416,34.937C49.071,36.592 50,38.836 50,41.177C50,43.517 49.071,45.761 47.416,47.416C45.761,49.071 43.517,50 41.177,50C38.836,50 36.592,49.071 34.937,47.416C33.283,45.761 32.353,43.517 32.353,41.177C32.353,38.836 33.283,36.592 34.937,34.937C36.592,33.283 38.836,32.353 41.177,32.353ZM41.177,35.882C39.772,35.882 38.426,36.44 37.433,37.433C36.44,38.426 35.882,39.773 35.882,41.177C35.882,42.581 36.44,43.927 37.433,44.92C38.426,45.913 39.772,46.471 41.177,46.471C42.581,46.471 43.927,45.913 44.92,44.92C45.913,43.927 46.471,42.581 46.471,41.177C46.471,39.773 45.913,38.426 44.92,37.433C43.927,36.44 42.581,35.882 41.177,35.882Z" fill="#000000"/>
</svg>
