<svg width="84" height="80" viewBox="0 0 84 80" fill="none" xmlns="http://www.w3.org/2000/svg" xmlns:xlink="http://www.w3.org/1999/xlink">
<path d="M82.353,40C82.353,62.091 63.918,80 41.176,80C18.435,80 0,62.091 0,40C0,17.909 18.435,0 41.176,0C63.918,0 82.353,17.909 82.353,40Z" stroke="#C2BBBB" stroke-width="1" stroke-miterlimit="3.999327"/>
<path d="M44.706,43.176L49.748,43.176L51.765,34.706L44.706,34.706L44.706,30.471C44.706,28.289 44.706,26.235 48.74,26.235L51.765,26.235L51.765,19.12C51.107,19.029 48.625,18.823 46.003,18.823C40.527,18.823 36.639,22.332 36.639,28.776L36.639,34.706L30.588,34.706L30.588,43.176L36.639,43.176L36.639,61.176L44.706,61.176L44.706,43.176Z" fill="#000000"/>
</svg>
