<svg width="66" height="36" viewBox="0 0 66 36" fill="none" xmlns="http://www.w3.org/2000/svg" xmlns:xlink="http://www.w3.org/1999/xlink">
<path d="M23.015,5.76C23.627,5.12 23.961,4.274 23.945,3.4C23.929,2.525 23.565,1.691 22.93,1.073C22.294,0.454 21.437,0.1 20.538,0.085C19.639,0.069 18.77,0.394 18.112,0.99L3.076,15.615L0.625,18L3.076,20.385L18.108,35.01C18.761,35.625 19.637,35.966 20.547,35.958C21.456,35.951 22.327,35.597 22.97,34.971C23.614,34.346 23.979,33.499 23.987,32.614C23.995,31.73 23.646,30.877 23.015,30.24L13.903,21.375L61.906,21.375C62.826,21.375 63.709,21.019 64.359,20.386C65.01,19.754 65.375,18.895 65.375,18C65.375,17.105 65.01,16.246 64.359,15.614C63.709,14.981 62.826,14.625 61.906,14.625L13.903,14.625L23.015,5.76Z" clip-rule="evenodd" fill-rule="evenodd" fill="#000000"/>
</svg>
